<?xml version="1.0" standalone="no"?>
<!DOCTYPE svg PUBLIC "-//W3C//DTD SVG 20010904//EN"
 "http://www.w3.org/TR/2001/REC-SVG-20010904/DTD/svg10.dtd">
<svg version="1.0" xmlns="http://www.w3.org/2000/svg"
 width="45.000000pt" height="87.000000pt" viewBox="0 0 45.000000 87.000000"
 preserveAspectRatio="xMidYMid meet">
<metadata>
Created by potrace 1.15, written by Peter Selinger 2001-2017
</metadata>
<g transform="translate(0.000000,87.000000) scale(0.100000,-0.100000)"
fill="#000000" stroke="none">
<path d="M182 810 c-36 -38 -132 -204 -132 -228 0 -6 15 -15 33 -20 32 -9 32
-8 69 61 20 38 38 70 40 72 2 2 1 -60 0 -138 -3 -130 10 -377 25 -470 6 -37 7
-38 42 -35 33 3 36 5 34 33 -2 17 -7 84 -13 150 -12 150 -13 478 -1 471 5 -3
21 -40 36 -81 15 -41 29 -75 30 -75 1 0 17 5 34 11 29 10 32 15 27 41 -10 53
-66 173 -97 211 -42 51 -76 50 -127 -3z"/>
</g>
</svg>
