<?xml version="1.0" standalone="no"?>
<!DOCTYPE svg PUBLIC "-//W3C//DTD SVG 20010904//EN"
 "http://www.w3.org/TR/2001/REC-SVG-20010904/DTD/svg10.dtd">
<svg version="1.0" xmlns="http://www.w3.org/2000/svg"
 width="42.000000pt" height="94.000000pt" viewBox="0 0 42.000000 94.000000"
 preserveAspectRatio="xMidYMid meet">
<metadata>
Created by potrace 1.15, written by Peter Selinger 2001-2017
</metadata>
<g transform="translate(0.000000,94.000000) scale(0.100000,-0.100000)"
fill="#000000" stroke="none">
<path d="M248 906 c-47 -17 -108 -53 -187 -111 l-63 -46 23 -25 c12 -13 27
-24 31 -24 5 0 37 20 71 43 93 65 96 66 44 7 -26 -30 -62 -84 -80 -120 -29
-59 -32 -73 -32 -160 0 -89 2 -100 37 -173 42 -87 117 -173 212 -244 l60 -44
18 23 c25 33 23 42 -21 72 -63 44 -166 157 -197 216 -26 49 -29 65 -29 145 0
78 4 97 27 141 15 28 47 73 72 100 l45 49 0 -40 c0 -22 -3 -56 -8 -77 -8 -36
-8 -36 29 -46 45 -11 44 -14 59 118 11 102 1 167 -29 192 -26 21 -33 21 -82 4z"/>
</g>
</svg>
