<?xml version="1.0" standalone="no"?>
<!DOCTYPE svg PUBLIC "-//W3C//DTD SVG 20010904//EN"
 "http://www.w3.org/TR/2001/REC-SVG-20010904/DTD/svg10.dtd">
<svg version="1.0" xmlns="http://www.w3.org/2000/svg"
 width="457.000000pt" height="397.000000pt" viewBox="0 0 457.000000 397.000000"
 preserveAspectRatio="xMidYMid meet">
<metadata>
Created by potrace 1.15, written by Peter Selinger 2001-2017
</metadata>
<g transform="translate(0.000000,397.000000) scale(0.100000,-0.100000)"
fill="#000000" stroke="none">
<path d="M2205 3952 c-61 -24 -281 -148 -568 -319 -142 -85 -277 -160 -302
-167 -50 -16 -162 -75 -268 -143 -279 -180 -585 -448 -727 -638 -59 -79 -206
-361 -241 -463 -219 -634 155 -1338 951 -1793 239 -137 524 -241 760 -279 41
-7 125 -20 185 -31 448 -75 887 -33 1313 126 491 184 874 509 1072 910 86 175
105 264 105 490 -1 224 -38 375 -145 590 -258 518 -871 956 -1604 1144 -65 17
-128 31 -140 31 -12 0 -37 9 -56 20 -107 62 -274 110 -383 110 -24 0 -59 3
-76 6 -30 6 -29 8 92 99 67 51 132 104 145 117 35 39 92 132 84 140 -6 5 -118
54 -147 63 -5 2 -28 -4 -50 -13z m-840 -866 c39 -8 147 -22 240 -31 273 -26
414 -48 635 -101 523 -125 953 -348 1252 -651 151 -152 235 -273 335 -478 29
-60 66 -128 83 -150 63 -84 59 -202 -11 -380 -48 -122 -116 -240 -255 -441
l-106 -152 -81 -30 c-233 -86 -402 -119 -662 -128 -410 -16 -859 81 -1262 271
-391 185 -676 494 -802 871 -81 241 -83 539 -4 757 90 251 261 465 493 620 63
43 54 41 145 23z"/>
</g>
</svg>
