<?xml version="1.0" encoding="UTF-8" standalone="no"?>
<!-- Created with Inkscape (http://www.inkscape.org/) -->

<svg
   xmlns:dc="http://purl.org/dc/elements/1.1/"
   xmlns:cc="http://creativecommons.org/ns#"
   xmlns:rdf="http://www.w3.org/1999/02/22-rdf-syntax-ns#"
   xmlns:svg="http://www.w3.org/2000/svg"
   xmlns="http://www.w3.org/2000/svg"
   xmlns:sodipodi="http://sodipodi.sourceforge.net/DTD/sodipodi-0.dtd"
   xmlns:inkscape="http://www.inkscape.org/namespaces/inkscape"
   version="1.1"
   id="svg2"
   xml:space="preserve"
   width="372.86053"
   height="275.81448"
   viewBox="0 0 372.86053 275.81448"
   sodipodi:docname="moa_light.svg"
   inkscape:version="0.92.4 (5da689c313, 2019-01-14)"><metadata
     id="metadata8"><rdf:RDF><cc:Work
         rdf:about=""><dc:format>image/svg+xml</dc:format><dc:type
           rdf:resource="http://purl.org/dc/dcmitype/StillImage" /><dc:title></dc:title></cc:Work></rdf:RDF></metadata><defs
     id="defs6"><clipPath
       clipPathUnits="userSpaceOnUse"
       id="clipPath18"><path
         d="M 0,841.89 H 595.276 V 0 H 0 Z"
         id="path16"
         inkscape:connector-curvature="0" /></clipPath></defs><sodipodi:namedview
     pagecolor="#ffffff"
     bordercolor="#666666"
     borderopacity="1"
     objecttolerance="10"
     gridtolerance="10"
     guidetolerance="10"
     inkscape:pageopacity="0"
     inkscape:pageshadow="2"
     inkscape:window-width="1920"
     inkscape:window-height="1058"
     id="namedview4"
     showgrid="false"
     inkscape:pagecheckerboard="true"
     inkscape:zoom="1.6819299"
     inkscape:cx="137.5964"
     inkscape:cy="175.90665"
     inkscape:window-x="1912"
     inkscape:window-y="-8"
     inkscape:window-maximized="1"
     inkscape:current-layer="g10"
     fit-margin-top="0"
     fit-margin-left="0"
     fit-margin-right="0"
     fit-margin-bottom="0" /><g
     id="g10"
     inkscape:groupmode="layer"
     inkscape:label="moa_300_dpi_final"
     transform="matrix(1.3333333,0,0,-1.3333333,-205.30919,661.1054)"><g
       id="g20"
       transform="translate(226.7837,375.8906)"
       style="fill:#ffffff"><path
         d="M 0,0 V 4.62 C 9.9,5.677 10.692,6.601 10.561,18.745 L 10.296,69.566 H 9.636 L -19.536,0.924 h -3.696 l -26.929,67.322 h -0.528 l -1.584,-34.453 c -0.529,-10.956 -0.529,-17.161 0,-21.253 0.528,-5.939 3.168,-7.128 11.879,-7.92 V 0 h -31.68 v 4.62 c 7.392,0.66 9.9,3.036 10.692,7.656 0.792,4.225 1.848,11.088 2.773,24.817 l 2.111,26.137 c 1.057,15.048 0.133,16.896 -11.22,17.952 v 4.62 h 27.324 l 25.478,-57.817 25.872,57.817 h 26.533 v -4.62 C 26.929,80.126 26.4,79.07 26.665,68.114 L 27.853,18.745 C 28.117,6.601 28.776,5.677 39.073,4.62 V 0 Z"
         style="fill:#ffffff;fill-opacity:1;fill-rule:nonzero;stroke:none"
         id="path22"
         inkscape:connector-curvature="0" /></g><g
       id="g24"
       transform="translate(308.3574,458.1289)"
       style="fill:#ffffff"><path
         d="m 0,0 c -13.2,0 -23.627,-14.125 -23.627,-36.961 0,-22.573 10.032,-41.714 26.928,-41.714 12.541,0 22.705,12.278 22.705,36.566 C 26.006,-15.84 15.313,0 0.133,0 Z m 2.641,5.412 c 23.892,0 43.56,-17.688 43.56,-43.825 0,-28.513 -20.459,-45.805 -45.277,-45.805 -26.4,0 -44.749,19.405 -44.749,44.748 0,22.705 16.105,44.882 46.335,44.882 z"
         style="fill:#ffffff;fill-opacity:1;fill-rule:nonzero;stroke:none"
         id="path26"
         inkscape:connector-curvature="0" /></g><g
       id="g28"
       transform="translate(384.6543,439.5166)"
       style="fill:#ffffff"><path
         d="M 0,0 H -0.396 C -4.092,-9.636 -7.393,-19.141 -10.824,-28.514 H 9.768 Z m 11.221,-63.626 v 4.62 c 7.787,1.188 8.447,2.772 6.336,8.58 -1.321,3.961 -3.301,9.504 -5.282,14.916 h -25.343 c -1.453,-4.092 -3.168,-8.844 -4.752,-14.124 -1.848,-6.336 -1.584,-8.184 8.052,-9.372 v -4.62 h -29.57 l 0.133,4.62 c 8.713,1.057 10.297,2.508 14.652,13.596 L 2.508,22.44 9.24,24.157 c 8.448,-23.101 16.633,-46.069 25.213,-68.774 4.488,-11.617 6.203,-13.332 14.52,-14.389 v -4.62 z"
         style="fill:#ffffff;fill-opacity:1;fill-rule:nonzero;stroke:none"
         id="path30"
         inkscape:connector-curvature="0" /></g><g
       id="g32"
       transform="translate(171.7681,346.8906)"><path
         d="M 0,0 H -2.548 V 13.807 H -2.6 L -8.06,6.942 h -0.416 l -5.461,6.865 h -0.051 V 0 h -2.549 v 17.732 h 2.392 l 5.877,-7.28 5.902,7.28 H 0 Z"
         style="fill:#859862;fill-opacity:1;fill-rule:nonzero;stroke:none"
         id="path34"
         inkscape:connector-curvature="0" /></g><g
       id="g36"
       transform="translate(184.5337,354.4053)"><path
         d="M 0,0 H 5.512 L 2.652,6.422 Z M 11.519,-7.515 H 8.918 l -2.366,5.226 h -7.54 l -2.236,-5.226 h -2.6 l 7.618,17.837 h 1.794 z"
         style="fill:#859862;fill-opacity:1;fill-rule:nonzero;stroke:none"
         id="path38"
         inkscape:connector-curvature="0" /></g><g
       id="g40"
       transform="translate(219.478,346.8906)"><path
         d="M 0,0 H -2.185 L -14.041,13.65 V 0 h -2.392 v 17.732 h 2.028 L -2.393,4.004 V 17.732 H 0 Z"
         style="fill:#859862;fill-opacity:1;fill-rule:nonzero;stroke:none"
         id="path42"
         inkscape:connector-curvature="0" /></g><g
       id="g44"
       transform="translate(232.3208,354.4053)"><path
         d="M 0,0 H 5.512 L 2.652,6.422 Z M 11.519,-7.515 H 8.918 l -2.366,5.226 h -7.54 l -2.236,-5.226 h -2.6 l 7.618,17.837 h 1.794 z"
         style="fill:#859862;fill-opacity:1;fill-rule:nonzero;stroke:none"
         id="path46"
         inkscape:connector-curvature="0" /></g><g
       id="g48"
       transform="translate(265.3726,348.1123)"><path
         d="m 0,0 c -2.366,-1.039 -4.29,-1.455 -6.76,-1.455 -5.434,0 -9.438,3.795 -9.438,8.996 0,5.226 4.108,9.204 9.516,9.204 2.08,0 3.536,-0.338 6.318,-1.509 v -2.573 c -2.08,1.144 -4.238,1.741 -6.37,1.741 -3.848,0 -6.838,-2.937 -6.838,-6.785 0,-3.953 2.964,-6.734 7.176,-6.734 1.378,0 2.626,0.311 3.848,0.701 V 5.227 H -5.954 V 7.515 H 0 Z"
         style="fill:#859862;fill-opacity:1;fill-rule:nonzero;stroke:none"
         id="path50"
         inkscape:connector-curvature="0" /></g><g
       id="g52"
       transform="translate(284.1958,362.335)"><path
         d="m 0,0 h -7.514 v -5.355 h 7.254 v -2.29 h -7.254 v -5.511 h 7.748 v -2.288 H -10.062 V 2.288 H 0 Z"
         style="fill:#859862;fill-opacity:1;fill-rule:nonzero;stroke:none"
         id="path54"
         inkscape:connector-curvature="0" /></g><g
       id="g56"
       transform="translate(308.6885,346.8906)"><path
         d="M 0,0 H -2.548 V 13.807 H -2.601 L -8.06,6.942 h -0.416 l -5.461,6.865 h -0.051 V 0 h -2.549 v 17.732 h 2.392 l 5.876,-7.28 5.903,7.28 H 0 Z"
         style="fill:#859862;fill-opacity:1;fill-rule:nonzero;stroke:none"
         id="path58"
         inkscape:connector-curvature="0" /></g><g
       id="g60"
       transform="translate(327.6426,362.335)"><path
         d="m 0,0 h -7.516 v -5.355 h 7.256 v -2.29 h -7.256 v -5.511 h 7.748 v -2.288 H -10.063 V 2.288 H 0 Z"
         style="fill:#859862;fill-opacity:1;fill-rule:nonzero;stroke:none"
         id="path62"
         inkscape:connector-curvature="0" /></g><g
       id="g64"
       transform="translate(352.0566,346.8906)"><path
         d="M 0,0 H -2.184 L -14.041,13.65 V 0 h -2.393 v 17.732 h 2.03 L -2.393,4.004 V 17.732 H 0 Z"
         style="fill:#859862;fill-opacity:1;fill-rule:nonzero;stroke:none"
         id="path66"
         inkscape:connector-curvature="0" /></g><g
       id="g68"
       transform="translate(374.3379,362.335)"><path
         d="M 0,0 H -6.137 V -15.444 H -8.684 V 0 H -14.82 V 2.288 H 0 Z"
         style="fill:#859862;fill-opacity:1;fill-rule:nonzero;stroke:none"
         id="path70"
         inkscape:connector-curvature="0" /></g><g
       id="g72"
       transform="translate(402.834,348.9971)"><path
         d="m 0,0 c 3.979,0 6.916,2.886 6.916,6.76 0,3.9 -2.937,6.76 -6.916,6.76 -3.953,0 -6.891,-2.86 -6.891,-6.76 C -6.891,2.886 -3.953,0 0,0 m 0,15.86 c 5.85,0 9.541,-4.16 9.541,-9.1 0,-4.784 -3.588,-9.1 -9.594,-9.1 -5.799,0 -9.465,4.289 -9.465,9.1 0,4.914 3.772,9.1 9.518,9.1"
         style="fill:#859862;fill-opacity:1;fill-rule:nonzero;stroke:none"
         id="path74"
         inkscape:connector-curvature="0" /></g><g
       id="g76"
       transform="translate(430.0547,362.335)"><path
         d="M 0,0 H -6.916 V -4.914 H 0 v -2.288 h -6.916 v -8.242 H -9.463 V 2.288 H 0 Z"
         style="fill:#859862;fill-opacity:1;fill-rule:nonzero;stroke:none"
         id="path78"
         inkscape:connector-curvature="0" /></g><g
       id="g80"
       transform="translate(166.4844,319.4824)"><path
         d="m 0,0 c 4.896,0 8.512,3.552 8.512,8.319 0,4.8 -3.616,8.32 -8.512,8.32 -4.863,0 -8.479,-3.52 -8.479,-8.32 C -8.479,3.552 -4.863,0 0,0 m 0,19.519 c 7.2,0 11.743,-5.12 11.743,-11.2 0,-5.887 -4.415,-11.199 -11.807,-11.199 -7.135,0 -11.647,5.279 -11.647,11.199 0,6.048 4.64,11.2 11.711,11.2"
         style="fill:#859862;fill-opacity:1;fill-rule:nonzero;stroke:none"
         id="path82"
         inkscape:connector-curvature="0" /></g><g
       id="g84"
       transform="translate(194.5166,333.9131)"><path
         d="m 0,0 c -1.856,1.76 -3.648,2.271 -5.12,2.271 -2.015,0 -3.455,-1.054 -3.455,-2.591 0,-4.192 9.439,-4.127 9.439,-11.071 0,-3.423 -2.592,-5.92 -6.112,-5.92 -2.367,0 -4.287,0.641 -6.111,2.016 v 3.969 c 1.6,-2.049 3.615,-3.168 5.759,-3.168 2.432,0 3.552,1.535 3.552,2.752 0,4.512 -9.439,5.023 -9.439,11.006 0,3.552 2.624,5.824 6.623,5.824 1.664,0 3.328,-0.512 4.864,-1.535 z"
         style="fill:#859862;fill-opacity:1;fill-rule:nonzero;stroke:none"
         id="path86"
         inkscape:connector-curvature="0" /></g><g
       id="g88"
       transform="translate(217.2681,335.8975)"><path
         d="m 0,0 h -7.552 v -19.007 h -3.136 V 0 h -7.551 V 2.815 H 0 Z"
         style="fill:#859862;fill-opacity:1;fill-rule:nonzero;stroke:none"
         id="path90"
         inkscape:connector-curvature="0" /></g><g
       id="g92"
       transform="translate(234.6758,335.8975)"><path
         d="m 0,0 h -9.247 v -6.592 h 8.927 v -2.816 h -8.927 v -6.783 h 9.535 v -2.816 H -12.383 V 2.815 H 0 Z"
         style="fill:#859862;fill-opacity:1;fill-rule:nonzero;stroke:none"
         id="path94"
         inkscape:connector-curvature="0" /></g><g
       id="g96"
       transform="translate(251.1235,319.4824)"><path
         d="m 0,0 c 4.896,0 8.512,3.552 8.512,8.319 0,4.8 -3.616,8.32 -8.512,8.32 -4.863,0 -8.479,-3.52 -8.479,-8.32 C -8.479,3.552 -4.863,0 0,0 m 0,19.519 c 7.2,0 11.743,-5.12 11.743,-11.2 0,-5.887 -4.415,-11.199 -11.807,-11.199 -7.135,0 -11.647,5.279 -11.647,11.199 0,6.048 4.64,11.2 11.711,11.2"
         style="fill:#859862;fill-opacity:1;fill-rule:nonzero;stroke:none"
         id="path98"
         inkscape:connector-curvature="0" /></g><g
       id="g100"
       transform="translate(272.2827,326.1377)"><path
         d="m 0,0 h 6.784 l -3.52,7.904 z m 14.175,-9.247 h -3.2 l -2.912,6.432 h -9.279 l -2.752,-6.432 h -3.199 l 9.375,21.95 h 2.208 z"
         style="fill:#859862;fill-opacity:1;fill-rule:nonzero;stroke:none"
         id="path102"
         inkscape:connector-curvature="0" /></g><g
       id="g104"
       transform="translate(294.1387,329.1777)"><path
         d="M 0,0 H 2.016 C 5.375,0 6.336,1.728 6.304,3.552 6.271,5.6 5.056,6.848 2.016,6.848 H 0 Z m 2.368,9.535 c 4.415,0 7.167,-2.335 7.167,-6.111 0,-2.528 -1.312,-4.415 -3.647,-5.344 1.983,-1.311 3.2,-3.327 4.863,-6.048 0.929,-1.504 1.472,-2.239 2.976,-4.319 H 9.983 l -2.879,4.479 c -2.88,4.481 -4.192,4.993 -5.792,4.993 H 0 v -9.472 H -3.136 V 9.535 Z"
         style="fill:#859862;fill-opacity:1;fill-rule:nonzero;stroke:none"
         id="path106"
         inkscape:connector-curvature="0" /></g><g
       id="g108"
       transform="translate(325.8535,335.8975)"><path
         d="m 0,0 h -7.551 v -19.007 h -3.136 V 0 h -7.551 V 2.815 H 0 Z"
         style="fill:#859862;fill-opacity:1;fill-rule:nonzero;stroke:none"
         id="path110"
         inkscape:connector-curvature="0" /></g><g
       id="g112"
       transform="translate(349.373,316.8906)"><path
         d="M 0,0 H -3.135 V 9.503 H -15.359 V 0 h -3.135 v 21.822 h 3.135 v -9.503 h 12.224 v 9.503 H 0 Z"
         style="fill:#859862;fill-opacity:1;fill-rule:nonzero;stroke:none"
         id="path114"
         inkscape:connector-curvature="0" /></g><g
       id="g116"
       transform="translate(359.4863,329.1777)"><path
         d="M 0,0 H 2.016 C 5.377,0 6.336,1.728 6.305,3.552 6.271,5.6 5.057,6.848 2.016,6.848 H 0 Z m 2.369,9.535 c 4.414,0 7.166,-2.335 7.166,-6.111 0,-2.528 -1.31,-4.415 -3.646,-5.344 1.982,-1.311 3.199,-3.327 4.863,-6.048 0.928,-1.504 1.471,-2.239 2.975,-4.319 H 9.984 l -2.88,4.479 C 4.225,-3.327 2.912,-2.815 1.313,-2.815 H 0 v -9.472 H -3.135 V 9.535 Z"
         style="fill:#859862;fill-opacity:1;fill-rule:nonzero;stroke:none"
         id="path118"
         inkscape:connector-curvature="0" /></g><path
       d="m 380.861,316.891 h -3.135 v 21.822 h 3.135 z"
       style="fill:#859862;fill-opacity:1;fill-rule:nonzero;stroke:none"
       id="path120"
       inkscape:connector-curvature="0" /><g
       id="g122"
       transform="translate(404.1563,335.8975)"><path
         d="m 0,0 h -7.551 v -19.007 h -3.135 V 0 h -7.552 V 2.815 H 0 Z"
         style="fill:#859862;fill-opacity:1;fill-rule:nonzero;stroke:none"
         id="path124"
         inkscape:connector-curvature="0" /></g><path
       d="m 412.35,316.891 h -3.135 v 21.822 h 3.135 z"
       style="fill:#859862;fill-opacity:1;fill-rule:nonzero;stroke:none"
       id="path126"
       inkscape:connector-curvature="0" /><g
       id="g128"
       transform="translate(429.6289,333.9131)"><path
         d="m 0,0 c -1.855,1.76 -3.648,2.271 -5.119,2.271 -2.016,0 -3.457,-1.054 -3.457,-2.591 0,-4.192 9.439,-4.127 9.439,-11.071 0,-3.423 -2.592,-5.92 -6.111,-5.92 -2.367,0 -4.287,0.641 -6.111,2.016 v 3.969 c 1.599,-2.049 3.615,-3.168 5.759,-3.168 2.432,0 3.551,1.535 3.551,2.752 0,4.512 -9.437,5.023 -9.437,11.006 0,3.552 2.623,5.824 6.623,5.824 1.664,0 3.328,-0.512 4.863,-1.535 z"
         style="fill:#859862;fill-opacity:1;fill-rule:nonzero;stroke:none"
         id="path130"
         inkscape:connector-curvature="0" /></g><g
       id="g132"
       transform="translate(299.2031,489.2988)"><path
         d="m 0,0 c 0,0 3.325,1.693 4.322,1.693 0.371,0 4.138,1.754 4.138,1.754 0,0 -1.853,1.572 -7.039,2.237 0,0 -0.309,0.786 -2.038,0.846 0,0 -11.731,0.242 -11.485,-13.967 0,0 -1.049,-10.399 1.791,-15.116 0,0 3.705,-11.608 -1.42,-16.445 0,0 -2.963,-4.414 -15.189,-0.847 0,0 -18.833,5.381 -35.504,-2.6 0,0 -9.88,-5.623 -12.04,-10.097 l 2.778,0.181 c 0,0 -2.469,-2.6 -2.655,-5.623 0,0 -1.852,-3.144 -1.543,-5.079 l -0.186,-4.112 c 0,0 -0.555,-1.571 1.297,-1.209 0,0 0,-1.027 0.988,-0.544 l 2.532,1.028 c 0,0 0.493,-3.93 3.025,-2.539 l 0.864,0.907 c 0,0 1.297,-3.811 3.52,-3.931 l 1.112,0.241 c 0,0 0.246,-1.51 1.172,-2.237 0,0 -1.049,-3.324 -0.802,-7.679 l -0.186,-11.125 -0.864,-1.269 -0.062,-1.391 c 0,0 -0.741,-1.451 0.247,-3.387 0,0 3.952,-4.17 4.508,-5.259 l 4.939,-10.763 c 0,0 -1.173,-0.665 -0.061,-2.298 0,0 0.123,-4.353 2.346,-5.199 0,0 1.605,-1.028 1.667,-1.572 0.061,-0.545 0.37,-1.754 1.05,-2.178 0,0 3.149,-0.664 3.889,-1.027 l 3.52,-0.423 -1.79,3.204 -0.062,0.846 c 0,0 5.557,-0.543 8.089,0.061 0,0 3.766,-0.362 4.26,-1.33 l 0.988,-0.605 -0.494,2.782 c 0,0 -1.297,3.629 -5.742,3.748 0,0 -4.384,-0.483 -5.125,-0.302 0,0 -4.693,2.056 -5.557,4.233 0,0 -2.223,3.204 -3.705,9.976 0,0 -1.236,8.465 -2.408,9.069 0,0 1.914,5.382 2.469,7.075 0,0 4.014,6.589 4.261,9.553 l 1.112,4.958 7.594,3.024 1.667,-2.238 5.866,5.501 -0.185,-2.962 c 0,0 0.803,-0.846 1.482,0.363 l 4.075,7.558 -0.308,-2.781 c 0,0 -0.185,-2.479 1.482,-1.029 0,0 10.928,11.126 11.855,12.517 l -0.618,-1.451 c 0,0 0.433,-2.177 1.358,-0.484 l 2.902,4.958 4.878,7.921 0.124,-1.209 c 0,0 0.803,-2.116 1.605,-0.061 0,0 2.655,20.678 1.05,23.944 0,0 -4.075,11.065 -4.261,13.241 0,0 -1.481,7.86 4.507,8.949"
         style="fill:#859862;fill-opacity:1;fill-rule:nonzero;stroke:none"
         id="path134"
         inkscape:connector-curvature="0" /></g><g
       id="g136"
       transform="translate(246.7734,428.9126)"><path
         d="m 0,0 -7.647,7.158 c 0,0 -0.337,3.083 -3.261,2.753 0,0 -2.135,0.11 -1.462,-1.872 0,0 0.451,-2.313 2.362,-2.203 0,0 5.285,-6.057 5.285,-7.488 0,0 2.024,-4.295 4.836,-0.661 0,0 2.699,0 2.699,1.542 0,0 -1.013,1.762 -2.812,0.771"
         style="fill:#ffffff;fill-opacity:1;fill-rule:nonzero;stroke:none"
         id="path138"
         inkscape:connector-curvature="0" /></g><g
       id="g140"
       transform="translate(249.248,416.6904)"><path
         d="m 0,0 c 0,0 0.449,3.522 4.161,5.836 0,0 2.698,0.109 0.224,2.753 0,0 -0.675,2.092 -2.249,0.22 0,0 -1.462,-0.771 -2.249,-0.662 l -2.362,-9.58 0.451,8.149 c 0,0 0.225,2.203 -2.025,0.44 0,0 -0.112,-2.312 0.563,-3.413 0,0 -5.735,-26.759 -5.735,-27.089 0,-0.33 -3.599,-1.982 0.112,-4.955 0,0 4.835,-1.762 4.835,2.092 l -0.787,2.533 z"
         style="fill:#ffffff;fill-opacity:1;fill-rule:nonzero;stroke:none"
         id="path142"
         inkscape:connector-curvature="0" /></g><g
       id="g144"
       transform="translate(245.5361,385.8564)"><path
         d="m 0,0 c 0,0 1.463,4.404 -1.124,0.881 l -2.249,-0.11 c 0,0 -2.361,-1.101 -0.562,-2.423 l 2.024,-0.991 3.148,-9.14 c 0,0 0.562,-1.871 0.114,-2.863 0,0 -0.788,-2.533 0.674,-1.651 0,0 0.45,1.762 1.236,0.329 0.788,-1.431 -0.111,-3.743 -0.111,-3.743 0,0 1.349,-2.094 1.911,-2.313 0.562,-0.22 0.337,-0.991 0.337,-0.991 0,0 3.486,-0.772 4.161,-1.432 l 1.236,0.551 c 0,0 -1.686,1.652 -2.586,1.542 -0.899,-0.111 -1.349,1.872 -1.349,1.872 0,0 1.237,1.211 1.125,1.872 -0.113,0.661 0.674,-0.441 0.674,-0.441 0,0 -0.562,-1.762 0.562,-1.652 l 1.125,0.992 c 0,0 3.373,-0.221 3.486,-0.771 0.112,-0.551 1.799,1.321 0,1.982 -1.799,0.66 -4.048,1.211 -4.048,1.211 0,0 -0.787,1.211 -2.137,1.652 l -1.35,0.441 -1.124,1.542 z"
         style="fill:#ffffff;fill-opacity:1;fill-rule:nonzero;stroke:none"
         id="path146"
         inkscape:connector-curvature="0" /></g><g
       id="g148"
       transform="translate(263.7534,366.4756)"><path
         d="m 0,0 c 0,0 -0.225,-0.771 -1.011,-0.881 -0.788,-0.11 -1.57,0.551 -1.179,1.321 0.391,0.771 1.853,0.551 1.853,0.551 l 2.024,0.441 c 0,0 2.586,-0.772 2.361,-2.313 C 3.824,-2.423 4.049,-1.982 2.924,-1.652 2.924,-1.652 0.675,0 0,0"
         style="fill:#ffffff;fill-opacity:1;fill-rule:nonzero;stroke:none"
         id="path150"
         inkscape:connector-curvature="0" /></g><g
       id="g152"
       transform="translate(167.3779,293.1094)"
       style="fill:#ffffff"><path
         d="M 0,0 H -1.621 V 9.309 H -1.656 L -6.59,0 -8.714,9.398 H -8.75 L -11.775,0 h -1.621 l 4.051,12.279 h 1.405 l 1.908,-8.318 4.411,8.318 H 0 Z"
         style="fill:#ffffff;fill-opacity:1;fill-rule:nonzero;stroke:none"
         id="path154"
         inkscape:connector-curvature="0" /></g><g
       id="g156"
       transform="translate(179.4897,300.1133)"
       style="fill:#ffffff"><path
         d="m 0,0 c -3.493,0.288 -4.159,-2.61 -4.159,-3.69 0,-1.297 0.666,-2.215 1.602,-2.215 0.612,0 1.423,0.612 1.89,1.242 z m 0.54,-7.004 h -1.53 l 0.144,0.937 -0.036,0.036 c -0.631,-0.685 -1.405,-1.135 -2.179,-1.135 -1.494,0 -2.665,1.44 -2.665,3.205 0,2.575 1.549,5.294 5.492,5.294 0.576,0 1.458,-0.108 1.908,-0.253 z"
         style="fill:#ffffff;fill-opacity:1;fill-rule:nonzero;stroke:none"
         id="path158"
         inkscape:connector-curvature="0" /></g><g
       id="g160"
       transform="translate(189.5508,303.7324)"
       style="fill:#ffffff"><path
         d="m 0,0 c 0,-0.486 -0.396,-0.882 -0.882,-0.882 -0.487,0 -0.883,0.396 -0.883,0.882 0,0.486 0.396,0.883 0.883,0.883 C -0.396,0.883 0,0.486 0,0 m -1.53,-10.623 h -1.531 l 1.134,8.084 h 1.531 z"
         style="fill:#ffffff;fill-opacity:1;fill-rule:nonzero;stroke:none"
         id="path162"
         inkscape:connector-curvature="0" /></g><g
       id="g164"
       transform="translate(196.8223,299.7891)"
       style="fill:#ffffff"><path
         d="m 0,0 0.036,-0.036 c 0.99,1.117 1.891,1.566 2.791,1.566 0.666,0 1.62,-0.342 1.837,-1.818 1.17,1.44 2.232,1.818 3.024,1.818 1.171,0 2.161,-0.882 1.855,-2.97 L 8.805,-6.68 H 7.274 L 8.03,-1.368 C 8.192,-0.306 7.868,0.324 7.202,0.324 6.662,0.324 5.78,-0.071 4.664,-1.548 L 3.925,-6.68 h -1.53 l 0.72,5.114 c 0.18,1.17 -0.036,1.89 -0.9,1.89 -0.594,0 -1.585,-0.738 -2.431,-1.872 l -0.72,-5.132 h -1.531 l 1.153,8.084 h 1.53 z"
         style="fill:#ffffff;fill-opacity:1;fill-rule:nonzero;stroke:none"
         id="path166"
         inkscape:connector-curvature="0" /></g><g
       id="g168"
       transform="translate(215.4165,294.1719)"
       style="fill:#ffffff"><path
         d="m 0,0 c 1.278,0 2.323,1.603 2.323,3.835 0,1.351 -0.559,2.232 -1.441,2.232 -1.314,0 -2.304,-1.872 -2.304,-3.924 C -1.422,0.846 -0.792,0 0,0 m 0.054,-1.314 c -1.908,0 -3.043,1.35 -3.043,3.619 0,2.827 1.675,4.969 3.871,4.969 1.837,0 3.007,-1.405 3.007,-3.529 0,-3.025 -1.71,-5.059 -3.835,-5.059"
         style="fill:#ffffff;fill-opacity:1;fill-rule:nonzero;stroke:none"
         id="path170"
         inkscape:connector-curvature="0" /></g><g
       id="g172"
       transform="translate(230.6992,300.1133)"
       style="fill:#ffffff"><path
         d="m 0,0 c -3.493,0.288 -4.159,-2.61 -4.159,-3.69 0,-1.297 0.666,-2.215 1.602,-2.215 0.612,0 1.423,0.612 1.891,1.242 z m 0.54,-7.004 h -1.53 l 0.144,0.937 -0.036,0.036 c -0.631,-0.685 -1.405,-1.135 -2.179,-1.135 -1.495,0 -2.665,1.44 -2.665,3.205 0,2.575 1.549,5.294 5.492,5.294 0.576,0 1.458,-0.108 1.908,-0.253 z"
         style="fill:#ffffff;fill-opacity:1;fill-rule:nonzero;stroke:none"
         id="path174"
         inkscape:connector-curvature="0" /></g><g
       id="g176"
       transform="translate(242.2549,300.0059)"
       style="fill:#ffffff"><path
         d="m 0,0 h -1.621 l -0.774,-4.43 c -0.18,-1.026 0.054,-1.35 0.792,-1.35 0.451,0 0.811,0.108 1.477,0.486 l -0.09,-1.494 c -0.648,-0.271 -1.081,-0.36 -1.675,-0.36 -1.584,0 -2.322,1.007 -2.107,2.251 L -3.151,0 h -1.423 l 0.18,1.188 h 1.477 l 0.306,1.657 h 1.512 L -1.387,1.188 h 1.549 z"
         style="fill:#ffffff;fill-opacity:1;fill-rule:nonzero;stroke:none"
         id="path178"
         inkscape:connector-curvature="0" /></g><g
       id="g180"
       transform="translate(253.1987,300.1133)"
       style="fill:#ffffff"><path
         d="m 0,0 c -3.493,0.288 -4.159,-2.61 -4.159,-3.69 0,-1.297 0.666,-2.215 1.602,-2.215 0.612,0 1.423,0.612 1.89,1.242 z m 0.54,-7.004 h -1.53 l 0.144,0.937 -0.036,0.036 c -0.631,-0.685 -1.405,-1.135 -2.179,-1.135 -1.494,0 -2.665,1.44 -2.665,3.205 0,2.575 1.549,5.294 5.492,5.294 0.576,0 1.458,-0.108 1.908,-0.253 z"
         style="fill:#ffffff;fill-opacity:1;fill-rule:nonzero;stroke:none"
         id="path182"
         inkscape:connector-curvature="0" /></g><g
       id="g184"
       transform="translate(262.7915,299.7715)"
       style="fill:#ffffff"><path
         d="m 0,0 0.036,-0.036 c 0.882,1.08 1.783,1.584 2.683,1.584 1.71,0 2.142,-1.782 1.927,-3.114 L 3.871,-6.662 H 2.359 l 0.738,5.149 c 0.198,1.405 -0.414,1.801 -0.882,1.801 -0.432,0 -1.278,-0.307 -2.431,-1.801 l -0.738,-5.149 h -1.513 l 1.134,8.084 h 1.531 z"
         style="fill:#ffffff;fill-opacity:1;fill-rule:nonzero;stroke:none"
         id="path186"
         inkscape:connector-curvature="0" /></g><g
       id="g188"
       transform="translate(276.6519,299.9512)"
       style="fill:#ffffff"><path
         d="m 0,0 c -0.829,0 -1.603,-0.9 -1.603,-1.872 0,-0.954 0.613,-1.639 1.459,-1.639 1.008,0 1.584,0.99 1.584,1.891 C 1.44,-0.666 0.828,0 0,0 m -0.576,-7.67 c -1.045,-0.198 -2.089,-0.648 -2.089,-1.188 0,-0.594 0.829,-0.973 2.179,-0.973 1.044,0 1.71,0.414 1.71,1.009 0,0.504 -0.846,0.936 -1.8,1.152 M 3.925,0.055 H 2.358 c 0.415,-0.595 0.541,-1.045 0.541,-1.603 0,-1.35 -0.649,-2.413 -1.891,-2.935 -0.954,-0.396 -2.755,-0.306 -2.755,-1.08 0,-1.008 4.43,-0.432 4.43,-3.116 0,-1.332 -1.387,-2.304 -3.295,-2.304 -2.035,0 -3.512,0.882 -3.512,2.088 0,0.955 1.099,1.387 2.323,1.639 v 0.036 c -1.008,0.378 -1.404,0.792 -1.404,1.422 0,0.667 0.684,1.243 1.602,1.495 -0.954,0.45 -1.458,1.26 -1.458,2.323 0,1.854 1.368,3.222 3.007,3.222 h 4.141 z"
         style="fill:#ffffff;fill-opacity:1;fill-rule:nonzero;stroke:none"
         id="path190"
         inkscape:connector-curvature="0" /></g><g
       id="g192"
       transform="translate(291.2681,300.1133)"
       style="fill:#ffffff"><path
         d="m 0,0 c -3.493,0.288 -4.159,-2.61 -4.159,-3.69 0,-1.297 0.666,-2.215 1.602,-2.215 0.612,0 1.423,0.612 1.89,1.242 z m 0.54,-7.004 h -1.53 l 0.144,0.937 -0.036,0.036 c -0.631,-0.685 -1.405,-1.135 -2.179,-1.135 -1.494,0 -2.665,1.44 -2.665,3.205 0,2.575 1.549,5.294 5.492,5.294 0.576,0 1.458,-0.108 1.908,-0.253 z"
         style="fill:#ffffff;fill-opacity:1;fill-rule:nonzero;stroke:none"
         id="path194"
         inkscape:connector-curvature="0" /></g><g
       id="g196"
       transform="translate(320.7354,293.1094)"
       style="fill:#ffffff"><path
         d="M 0,0 H -1.62 V 9.309 H -1.656 L -6.59,0 -8.715,9.398 H -8.751 L -11.775,0 h -1.621 l 4.051,12.279 h 1.405 l 1.908,-8.318 4.412,8.318 H 0 Z"
         style="fill:#ffffff;fill-opacity:1;fill-rule:nonzero;stroke:none"
         id="path198"
         inkscape:connector-curvature="0" /></g><g
       id="g200"
       transform="translate(332.8477,300.1133)"
       style="fill:#ffffff"><path
         d="m 0,0 c -3.492,0.288 -4.159,-2.61 -4.159,-3.69 0,-1.297 0.667,-2.215 1.602,-2.215 0.613,0 1.423,0.612 1.891,1.242 z M 0.541,-7.004 H -0.99 l 0.144,0.937 -0.036,0.036 c -0.63,-0.685 -1.404,-1.135 -2.179,-1.135 -1.494,0 -2.665,1.44 -2.665,3.205 0,2.575 1.549,5.294 5.493,5.294 0.576,0 1.458,-0.108 1.908,-0.253 z"
         style="fill:#ffffff;fill-opacity:1;fill-rule:nonzero;stroke:none"
         id="path202"
         inkscape:connector-curvature="0" /></g><g
       id="g204"
       transform="translate(344.4033,300.0059)"
       style="fill:#ffffff"><path
         d="m 0,0 h -1.621 l -0.774,-4.43 c -0.18,-1.026 0.054,-1.35 0.792,-1.35 0.451,0 0.811,0.108 1.477,0.486 l -0.09,-1.494 c -0.648,-0.271 -1.081,-0.36 -1.675,-0.36 -1.585,0 -2.323,1.007 -2.106,2.251 L -3.151,0 h -1.422 l 0.179,1.188 h 1.477 l 0.306,1.657 h 1.512 L -1.387,1.188 h 1.549 z"
         style="fill:#ffffff;fill-opacity:1;fill-rule:nonzero;stroke:none"
         id="path206"
         inkscape:connector-curvature="0" /></g><g
       id="g208"
       transform="translate(354.8965,298.3672)"
       style="fill:#ffffff"><path
         d="m 0,0 c 0,1.026 -0.449,1.818 -1.458,1.818 -0.9,0 -1.513,-0.594 -1.927,-1.818 z m 0.865,-4.609 c -0.81,-0.595 -1.728,-0.901 -2.701,-0.901 -2.053,0 -3.385,1.548 -3.385,3.907 0,2.647 1.674,4.682 3.835,4.682 1.801,0 3.151,-1.675 2.809,-4.142 h -5.041 c -0.379,-2.161 0.809,-3.186 2.07,-3.186 0.756,0 1.62,0.359 2.629,1.098 z"
         style="fill:#ffffff;fill-opacity:1;fill-rule:nonzero;stroke:none"
         id="path210"
         inkscape:connector-curvature="0" /></g><g
       id="g212"
       transform="translate(375.542,299.7178)"
       style="fill:#ffffff"><path
         d="M 0,0 5.492,-6.608 H 3.565 l -5.059,6.427 -0.901,-6.427 h -1.656 l 1.729,12.279 h 1.656 L -1.477,0.414 -1.44,0.378 3.781,5.671 h 1.873 z"
         style="fill:#ffffff;fill-opacity:1;fill-rule:nonzero;stroke:none"
         id="path214"
         inkscape:connector-curvature="0" /></g><path
       d="m 392.48,303.66 h -4.051 v 1.026 h 4.051 z m -4.68,-6.212 c 0,-1.908 1.097,-3.348 2.646,-3.348 1.513,0 2.647,1.422 2.647,3.384 0,1.477 -0.739,3.35 -2.611,3.35 -1.873,0 -2.682,-1.729 -2.682,-3.386 m 6.914,0.091 c 0,-3.224 -2.234,-4.628 -4.34,-4.628 -2.358,0 -4.177,1.729 -4.177,4.484 0,2.917 1.908,4.627 4.322,4.627 2.502,0 4.195,-1.819 4.195,-4.483"
       style="fill:#ffffff;fill-opacity:1;fill-rule:nonzero;stroke:none"
       id="path216"
       inkscape:connector-curvature="0" /><g
       id="g218"
       transform="translate(403.3691,303.7324)"
       style="fill:#ffffff"><path
         d="m 0,0 c 0,-0.486 -0.396,-0.882 -0.882,-0.882 -0.486,0 -0.882,0.396 -0.882,0.882 0,0.486 0.396,0.883 0.882,0.883 C -0.396,0.883 0,0.486 0,0 m -1.53,-10.623 h -1.531 l 1.135,8.084 h 1.53 z"
         style="fill:#ffffff;fill-opacity:1;fill-rule:nonzero;stroke:none"
         id="path220"
         inkscape:connector-curvature="0" /></g><g
       id="g222"
       transform="translate(415.2686,292.9473)"
       style="fill:#ffffff"><path
         d="M 0,0 H -0.72 L -1.765,5.294 H -1.801 L -4.537,0 h -0.702 l -1.675,8.246 h 1.494 l 0.973,-5.437 h 0.036 l 2.629,5.437 h 0.756 l 1.008,-5.437 h 0.036 l 2.647,5.437 h 1.494 z"
         style="fill:#ffffff;fill-opacity:1;fill-rule:nonzero;stroke:none"
         id="path224"
         inkscape:connector-curvature="0" /></g><g
       id="g226"
       transform="translate(426.8223,303.7324)"
       style="fill:#ffffff"><path
         d="m 0,0 c 0,-0.486 -0.396,-0.882 -0.882,-0.882 -0.486,0 -0.882,0.396 -0.882,0.882 0,0.486 0.396,0.883 0.882,0.883 C -0.396,0.883 0,0.486 0,0 m -1.53,-10.623 h -1.531 l 1.135,8.084 h 1.53 z"
         style="fill:#ffffff;fill-opacity:1;fill-rule:nonzero;stroke:none"
         id="path228"
         inkscape:connector-curvature="0" /></g></g></svg>